<svg xmlns="http://www.w3.org/2000/svg" width="416.25" height="511.999" viewBox="0 0 416.25 511.999">
  <g id="_644560" data-name="644560" transform="translate(-47.875)">
    <g id="Group_72" data-name="Group 72">
      <g id="Group_71" data-name="Group 71">
        <path id="Path_50" data-name="Path 50" d="M353.059,25.757H313.9a7.5,7.5,0,1,0,0,15h39.16a7.5,7.5,0,0,0,0-15Z"/>
      </g>
    </g>
    <g id="Group_74" data-name="Group 74">
      <g id="Group_73" data-name="Group 73">
        <path id="Path_51" data-name="Path 51" d="M297.662,31.793a7.916,7.916,0,0,0-.431-1.409,7.555,7.555,0,0,0-.689-1.29,7.357,7.357,0,0,0-.931-1.141,7.194,7.194,0,0,0-1.14-.93,7.3,7.3,0,0,0-1.3-.69,7.463,7.463,0,0,0-8.17,1.62,7.583,7.583,0,0,0-1.62,2.431,7.912,7.912,0,0,0-.43,1.409,7.1,7.1,0,0,0-.15,1.46,7.5,7.5,0,1,0,15,0A8.044,8.044,0,0,0,297.662,31.793Z"/>
      </g>
    </g>
    <g id="Group_76" data-name="Group 76">
      <g id="Group_75" data-name="Group 75">
        <path id="Path_52" data-name="Path 52" d="M113.921,56.465a7.737,7.737,0,0,0-.42-1.4,7.4,7.4,0,0,0-1.63-2.43c-6.362-6.563-16.484,2.13-11.541,9.461a7.476,7.476,0,0,0,4.77,3.189,7.262,7.262,0,0,0,1.47.15,7.156,7.156,0,0,0,1.46-.15,7.308,7.308,0,0,0,2.7-1.109,7.719,7.719,0,0,0,2.08-2.08,7.635,7.635,0,0,0,.69-1.29,7.786,7.786,0,0,0,.42-1.4,7.306,7.306,0,0,0,0-2.941Z"/>
      </g>
    </g>
    <g id="Group_78" data-name="Group 78">
      <g id="Group_77" data-name="Group 77">
        <path id="Path_53" data-name="Path 53" d="M111.871,79.138a7.358,7.358,0,0,0-1.14-.942,7.6,7.6,0,0,0-1.29-.69,7.945,7.945,0,0,0-1.41-.42,7.5,7.5,0,1,0-1.46,14.851,7.156,7.156,0,0,0,1.46-.15,7.862,7.862,0,0,0,1.41-.42,7.592,7.592,0,0,0,1.29-.689,7.492,7.492,0,0,0,1.14-11.54Z"/>
      </g>
    </g>
    <g id="Group_80" data-name="Group 80">
      <g id="Group_79" data-name="Group 79">
        <path id="Path_54" data-name="Path 54" d="M113.921,109.468a7.056,7.056,0,0,0-.43-1.4,6.949,6.949,0,0,0-.69-1.29,6.811,6.811,0,0,0-.93-1.14,7.521,7.521,0,0,0-6.77-2.051,7.844,7.844,0,0,0-1.4.42,7.668,7.668,0,0,0-1.29.69,6.956,6.956,0,0,0-1.14.94,7.356,7.356,0,0,0-.94,1.14,7.6,7.6,0,0,0-.69,1.29,7.761,7.761,0,0,0-.42,1.4,7.32,7.32,0,0,0-.15,1.47,7.5,7.5,0,0,0,15,0A7.333,7.333,0,0,0,113.921,109.468Z"/>
      </g>
    </g>
    <g id="Group_82" data-name="Group 82">
      <g id="Group_81" data-name="Group 81">
        <path id="Path_55" data-name="Path 55" d="M106.569,25.934a31.037,31.037,0,0,0-31,31v55a31,31,0,0,0,62,0v-55A31.035,31.035,0,0,0,106.569,25.934Zm16,86.005a16,16,0,0,1-32,0v-55a16,16,0,0,1,32,0Z"/>
      </g>
    </g>
    <g id="Group_84" data-name="Group 84">
      <g id="Group_83" data-name="Group 83">
        <path id="Path_56" data-name="Path 56" d="M456.625,410.384a7.5,7.5,0,0,0,7.5-7.5V53.987A54.049,54.049,0,0,0,410.137,0H101.863A54.049,54.049,0,0,0,47.875,53.987V458.011A54.048,54.048,0,0,0,101.863,512H112.57a7.5,7.5,0,0,0,0-15H101.863a39.031,39.031,0,0,1-38.987-38.986V53.987A39.031,39.031,0,0,1,101.863,15H198.3a55.017,55.017,0,0,0-9.345,11.872c-10.43,17.88-7.307,13.1-7.333,431.14A53.932,53.932,0,0,0,198.3,497H147.572a7.5,7.5,0,1,0,0,15H410.137a54.048,54.048,0,0,0,53.987-53.987V437.886a7.5,7.5,0,0,0-15,0v20.126A39.03,39.03,0,0,1,410.138,497H235.612a39.03,39.03,0,0,1-38.986-38.986V53.988A39.03,39.03,0,0,1,235.612,15H410.137a39.03,39.03,0,0,1,38.986,38.986v348.9A7.5,7.5,0,0,0,456.625,410.384Z"/>
      </g>
    </g>
    <g id="Group_86" data-name="Group 86">
      <g id="Group_85" data-name="Group 85">
        <path id="Path_57" data-name="Path 57" d="M410.137,25.758H380.628a7.5,7.5,0,0,0-7.5,7.5V45.936a4.56,4.56,0,0,1-4.5,4.5H277.122a4.56,4.56,0,0,1-4.5-4.5V33.257a7.5,7.5,0,0,0-7.5-7.5H235.613a28.264,28.264,0,0,0-28.232,28.231v46.45a7.5,7.5,0,0,0,15,0V53.988a13.245,13.245,0,0,1,13.231-13.23H257.62v5.177a19.524,19.524,0,0,0,19.5,19.5h91.506a19.524,19.524,0,0,0,19.5-19.5V40.758h22.008a13.245,13.245,0,0,1,13.23,13.23V458.012a13.244,13.244,0,0,1-13.23,13.23H235.612a13.246,13.246,0,0,1-13.231-13.23V135.44a7.5,7.5,0,0,0-15,0V458.013a28.264,28.264,0,0,0,28.232,28.231H410.138a28.264,28.264,0,0,0,28.231-28.231V53.988A28.264,28.264,0,0,0,410.137,25.758Z"/>
      </g>
    </g>
    <g id="Group_88" data-name="Group 88">
      <g id="Group_87" data-name="Group 87">
        <path id="Path_58" data-name="Path 58" d="M262.036,421.766H241.965a10.858,10.858,0,0,0-10.846,10.846v20.07h0a10.859,10.859,0,0,0,10.846,10.846h20.071a10.859,10.859,0,0,0,10.846-10.846v-20.07A10.859,10.859,0,0,0,262.036,421.766Zm-4.156,26.76H246.12v-11.76h11.76Z"/>
      </g>
    </g>
    <g id="Group_90" data-name="Group 90">
      <g id="Group_89" data-name="Group 89">
        <path id="Path_59" data-name="Path 59" d="M309.285,421.766H289.216a10.859,10.859,0,0,0-10.846,10.846v20.07a10.859,10.859,0,0,0,10.846,10.846h20.069a10.859,10.859,0,0,0,10.847-10.846v-20.07A10.86,10.86,0,0,0,309.285,421.766Zm-4.154,26.76h-11.76v-11.76h11.76Z"/>
      </g>
    </g>
    <g id="Group_92" data-name="Group 92">
      <g id="Group_91" data-name="Group 91">
        <path id="Path_60" data-name="Path 60" d="M356.535,421.766H336.466a10.858,10.858,0,0,0-10.847,10.846v20.07a10.859,10.859,0,0,0,10.847,10.846h20.069a10.859,10.859,0,0,0,10.847-10.846v-20.07A10.86,10.86,0,0,0,356.535,421.766Zm-4.155,26.76H340.62v-11.76h11.761v11.76Z"/>
      </g>
    </g>
    <g id="Group_94" data-name="Group 94">
      <g id="Group_93" data-name="Group 93">
        <path id="Path_61" data-name="Path 61" d="M403.785,421.766H383.716a10.859,10.859,0,0,0-10.847,10.846v20.07a10.859,10.859,0,0,0,10.847,10.846h20.069a10.859,10.859,0,0,0,10.847-10.846v-20.07A10.86,10.86,0,0,0,403.785,421.766Zm-4.155,26.76H387.87v-11.76h11.761v11.76Z"/>
      </g>
    </g>
    <g id="Group_96" data-name="Group 96">
      <g id="Group_95" data-name="Group 95">
        <path id="Path_62" data-name="Path 62" d="M262.036,84.056H241.965A10.858,10.858,0,0,0,231.119,94.9v20.07a10.859,10.859,0,0,0,10.846,10.848h20.071a10.859,10.859,0,0,0,10.846-10.847V94.9A10.859,10.859,0,0,0,262.036,84.056Zm-4.156,26.763H246.12V99.058h11.76Z"/>
      </g>
    </g>
    <g id="Group_98" data-name="Group 98">
      <g id="Group_97" data-name="Group 97">
        <path id="Path_63" data-name="Path 63" d="M309.284,84.056H289.215A10.859,10.859,0,0,0,278.369,94.9v20.07a10.861,10.861,0,0,0,10.846,10.848h20.069a10.859,10.859,0,0,0,10.847-10.847V94.9A10.86,10.86,0,0,0,309.284,84.056Zm-4.153,26.763h-11.76V99.058h11.76Z"/>
      </g>
    </g>
    <g id="Group_100" data-name="Group 100">
      <g id="Group_99" data-name="Group 99">
        <path id="Path_64" data-name="Path 64" d="M356.534,84.056H336.465A10.859,10.859,0,0,0,325.618,94.9v20.07a10.861,10.861,0,0,0,10.847,10.848h20.069a10.859,10.859,0,0,0,10.847-10.847V94.9A10.86,10.86,0,0,0,356.534,84.056Zm-4.154,26.763H340.62V99.058h11.761v11.761Z"/>
      </g>
    </g>
    <g id="Group_102" data-name="Group 102">
      <g id="Group_101" data-name="Group 101">
        <path id="Path_65" data-name="Path 65" d="M403.783,84.056H383.714A10.859,10.859,0,0,0,372.867,94.9v20.07a10.861,10.861,0,0,0,10.847,10.848h20.069a10.859,10.859,0,0,0,10.847-10.847V94.9A10.858,10.858,0,0,0,403.783,84.056Zm-4.153,26.763H387.87V99.058h11.761v11.761Z"/>
      </g>
    </g>
    <g id="Group_104" data-name="Group 104">
      <g id="Group_103" data-name="Group 103">
        <path id="Path_66" data-name="Path 66" d="M262.036,131.773H241.965a10.858,10.858,0,0,0-10.846,10.846v20.07h0a10.858,10.858,0,0,0,10.846,10.846h20.071a10.859,10.859,0,0,0,10.846-10.846v-20.07A10.859,10.859,0,0,0,262.036,131.773Zm-4.156,26.761H246.12v-11.76h11.76Z"/>
      </g>
    </g>
    <g id="Group_106" data-name="Group 106">
      <g id="Group_105" data-name="Group 105">
        <path id="Path_67" data-name="Path 67" d="M309.285,131.773H289.216a10.859,10.859,0,0,0-10.846,10.846v20.07a10.858,10.858,0,0,0,10.846,10.846h20.069a10.859,10.859,0,0,0,10.847-10.846v-20.07A10.86,10.86,0,0,0,309.285,131.773Zm-4.154,26.761h-11.76v-11.76h11.76Z"/>
      </g>
    </g>
    <g id="Group_108" data-name="Group 108">
      <g id="Group_107" data-name="Group 107">
        <path id="Path_68" data-name="Path 68" d="M356.535,131.773H336.466a10.858,10.858,0,0,0-10.847,10.846v20.07a10.858,10.858,0,0,0,10.847,10.846h20.069a10.859,10.859,0,0,0,10.847-10.846v-20.07A10.86,10.86,0,0,0,356.535,131.773Zm-4.155,26.761H340.62v-11.76h11.761v11.76Z"/>
      </g>
    </g>
    <g id="Group_110" data-name="Group 110">
      <g id="Group_109" data-name="Group 109">
        <path id="Path_69" data-name="Path 69" d="M403.785,131.773H383.716a10.859,10.859,0,0,0-10.847,10.846v20.07a10.858,10.858,0,0,0,10.847,10.846h20.069a10.859,10.859,0,0,0,10.847-10.846v-20.07A10.86,10.86,0,0,0,403.785,131.773Zm-4.155,26.761H387.87v-11.76h11.761v11.76Z"/>
      </g>
    </g>
    <g id="Group_112" data-name="Group 112">
      <g id="Group_111" data-name="Group 111">
        <path id="Path_70" data-name="Path 70" d="M262.036,180.11H241.965a10.858,10.858,0,0,0-10.846,10.846v20.07h0a10.859,10.859,0,0,0,10.846,10.846h20.071a10.859,10.859,0,0,0,10.846-10.846v-20.07A10.859,10.859,0,0,0,262.036,180.11Zm-4.156,26.761H246.12v-11.76h11.76Z"/>
      </g>
    </g>
    <g id="Group_114" data-name="Group 114">
      <g id="Group_113" data-name="Group 113">
        <path id="Path_71" data-name="Path 71" d="M309.285,180.11H289.216a10.859,10.859,0,0,0-10.846,10.846v20.07a10.859,10.859,0,0,0,10.846,10.846h20.069a10.859,10.859,0,0,0,10.847-10.846v-20.07A10.86,10.86,0,0,0,309.285,180.11Zm-4.154,26.761h-11.76v-11.76h11.76Z"/>
      </g>
    </g>
    <g id="Group_116" data-name="Group 116">
      <g id="Group_115" data-name="Group 115">
        <path id="Path_72" data-name="Path 72" d="M356.535,180.11H336.466a10.858,10.858,0,0,0-10.847,10.846v20.07a10.859,10.859,0,0,0,10.847,10.846h20.069a10.859,10.859,0,0,0,10.847-10.846v-20.07A10.86,10.86,0,0,0,356.535,180.11Zm-4.155,26.761H340.62v-11.76h11.761v11.76Z"/>
      </g>
    </g>
    <g id="Group_118" data-name="Group 118">
      <g id="Group_117" data-name="Group 117">
        <path id="Path_73" data-name="Path 73" d="M403.785,180.11H383.716a10.859,10.859,0,0,0-10.847,10.846v20.07a10.859,10.859,0,0,0,10.847,10.846h20.069a10.859,10.859,0,0,0,10.847-10.846v-20.07A10.86,10.86,0,0,0,403.785,180.11Zm-4.155,26.761H387.87v-11.76h11.761v11.76Z"/>
      </g>
    </g>
    <g id="Group_120" data-name="Group 120">
      <g id="Group_119" data-name="Group 119">
        <path id="Path_74" data-name="Path 74" d="M262.036,227.825H241.965a10.858,10.858,0,0,0-10.846,10.846v20.07h0a10.859,10.859,0,0,0,10.846,10.846h20.071a10.859,10.859,0,0,0,10.846-10.846v-20.07A10.858,10.858,0,0,0,262.036,227.825Zm-4.156,26.76H246.12v-11.76h11.76Z"/>
      </g>
    </g>
    <g id="Group_122" data-name="Group 122">
      <g id="Group_121" data-name="Group 121">
        <path id="Path_75" data-name="Path 75" d="M309.285,227.825H289.216a10.859,10.859,0,0,0-10.846,10.846v20.07a10.859,10.859,0,0,0,10.846,10.846h20.069a10.859,10.859,0,0,0,10.847-10.846v-20.07A10.859,10.859,0,0,0,309.285,227.825Zm-4.154,26.76h-11.76v-11.76h11.76Z"/>
      </g>
    </g>
    <g id="Group_124" data-name="Group 124">
      <g id="Group_123" data-name="Group 123">
        <path id="Path_76" data-name="Path 76" d="M356.535,227.825H336.466a10.858,10.858,0,0,0-10.847,10.846v20.07a10.859,10.859,0,0,0,10.847,10.846h20.069a10.859,10.859,0,0,0,10.847-10.846v-20.07A10.859,10.859,0,0,0,356.535,227.825Zm-4.155,26.76H340.62v-11.76h11.761v11.76Z"/>
      </g>
    </g>
    <g id="Group_126" data-name="Group 126">
      <g id="Group_125" data-name="Group 125">
        <path id="Path_77" data-name="Path 77" d="M262.036,275.541H241.965a10.858,10.858,0,0,0-10.846,10.846v20.07h0A10.858,10.858,0,0,0,241.965,317.3h20.071a10.859,10.859,0,0,0,10.846-10.846v-20.07A10.858,10.858,0,0,0,262.036,275.541ZM257.88,302.3H246.12v-11.76h11.76Z"/>
      </g>
    </g>
    <g id="Group_128" data-name="Group 128">
      <g id="Group_127" data-name="Group 127">
        <path id="Path_78" data-name="Path 78" d="M309.285,275.541H289.216a10.859,10.859,0,0,0-10.846,10.846v20.07A10.858,10.858,0,0,0,289.216,317.3h20.069a10.859,10.859,0,0,0,10.847-10.846v-20.07A10.859,10.859,0,0,0,309.285,275.541Zm-4.154,26.76h-11.76v-11.76h11.76Z"/>
      </g>
    </g>
    <g id="Group_130" data-name="Group 130">
      <g id="Group_129" data-name="Group 129">
        <path id="Path_79" data-name="Path 79" d="M356.535,275.541H336.466a10.858,10.858,0,0,0-10.847,10.846v20.07A10.858,10.858,0,0,0,336.466,317.3h20.069a10.859,10.859,0,0,0,10.847-10.846v-20.07A10.859,10.859,0,0,0,356.535,275.541ZM352.38,302.3H340.62v-11.76h11.761V302.3Z"/>
      </g>
    </g>
    <g id="Group_132" data-name="Group 132">
      <g id="Group_131" data-name="Group 131">
        <path id="Path_80" data-name="Path 80" d="M403.785,227.825H383.716a10.859,10.859,0,0,0-10.847,10.846v20.07a10.859,10.859,0,0,0,10.847,10.846h20.069a10.859,10.859,0,0,0,10.847-10.846v-20.07A10.859,10.859,0,0,0,403.785,227.825Zm-4.155,26.76H387.87v-11.76h11.761v11.76Z"/>
      </g>
    </g>
  </g>
</svg>
