<svg xmlns="http://www.w3.org/2000/svg" width="512.002" height="493.355" viewBox="0 0 512.002 493.355">
  <g id="_644562" data-name="644562" transform="translate(0 -9.322)">
    <g id="Group_49" data-name="Group 49">
      <g id="Group_48" data-name="Group 48">
        <path id="Path_38" data-name="Path 38" d="M511.469,35.3A21.289,21.289,0,0,0,490.7,9.322H21.3A21.291,21.291,0,0,0,.531,35.3C37.847,196.986,33.624,189.8,39.2,196.768a19.7,19.7,0,0,0-4.6,10.7c-.2,1.9-.066-12.369-.1,216.905a7.5,7.5,0,0,0,15,0c.008-224.753-.022-214.937.024-215.378a4.808,4.808,0,0,1,3.785-4.178c.927-.191-15.313-.1,350.562-.1,57.59,0,54.138-.049,54.841.1a4.8,4.8,0,0,1,3.81,4.662c-.009,286.156.022,273.449-.024,273.924a4.793,4.793,0,0,1-4.733,4.273h-92.9V395.9a14.848,14.848,0,0,0-14.831-14.831H161.511a14.379,14.379,0,0,0-14.364,14.364v92.242c-99.008-.034-92.962.086-93.85-.1a4.8,4.8,0,0,1-3.808-4.662V459.374a7.5,7.5,0,0,0-15,0c.034,24.872-.078,23.8.1,25.557a19.878,19.878,0,0,0,19.656,17.746H457.753a19.865,19.865,0,0,0,19.759-19.76c-.036-291.4.092-273.561-.1-275.45a19.7,19.7,0,0,0-4.605-10.7,21.333,21.333,0,0,0,4.158-8.646ZM349.853,487.677H162.147V396.07H349.853ZM462.33,184.816a6.256,6.256,0,0,1-6.137,4.9H407.6a19.451,19.451,0,0,0-14.158-6.129H118.564a19.454,19.454,0,0,0-14.158,6.129h-48.6a6.258,6.258,0,0,1-6.137-4.9C14.678,25.88,12.805,31.166,16.385,26.685c3.606-4.509-24.8-1.455,474.316-2.363A6.29,6.29,0,0,1,496.837,32Z"/>
      </g>
    </g>
    <g id="Group_51" data-name="Group 51">
      <g id="Group_50" data-name="Group 50">
        <path id="Path_39" data-name="Path 39" d="M470.521,37.424c-3.182-.924-426.833-.452-426.936-.44A12.672,12.672,0,0,0,32.661,52.369C35.2,63.621,56.063,156.005,58.6,167.255a12.605,12.605,0,0,0,12.363,9.884H441.033a12.606,12.606,0,0,0,12.362-9.882c3.046-13.491,23.47-103.94,25.942-114.889A12.634,12.634,0,0,0,470.521,37.424Zm-9.475,27.85H405.473a7.5,7.5,0,0,0,0,15h52.185l-18.486,81.864H72.827L54.341,80.275H370.473a7.5,7.5,0,0,0,0-15H50.954l-3.019-13.37h416.13Z"/>
      </g>
    </g>
    <g id="Group_53" data-name="Group 53">
      <g id="Group_52" data-name="Group 52">
        <path id="Path_40" data-name="Path 40" d="M429.568,221.694H158.649a7.5,7.5,0,0,0,0,15c282.737.126,271.189-.265,271.189.27V248.5H82.828V236.7h40.819a7.5,7.5,0,0,0,0-15H82.069a14.255,14.255,0,0,0-14.24,14.239V354.92a16.554,16.554,0,0,0,16.535,16.535H429.208a15.648,15.648,0,0,0,15.63-15.63V236.964A15.287,15.287,0,0,0,429.568,221.694Zm-50.55,41.8h50.819v11.523H379.018Zm50.82,26.524v11.523H395.474V290.022ZM346.109,263.5h17.909v11.523H346.109Zm-32.91,0h17.909v11.523H313.2Zm1.454,26.523v11.523H296.744V290.021h17.909ZM298.2,316.546v11.523H280.29V316.546H298.2ZM280.289,263.5H298.2v11.523H280.289Zm1.454,26.523v11.523H263.834V290.021h17.909Zm-16.454,26.525v11.523H247.38V316.546h17.909ZM247.379,263.5h17.909v11.523H247.379V263.5Zm1.454,26.523v11.523H230.924V290.021h17.909Zm-16.455,26.525v11.523H214.469V316.546h17.909ZM214.468,263.5h17.909v11.523H214.468Zm1.455,26.523v11.523H198.015V290.021h17.908Zm-16.455,26.525v11.523H181.559V316.546h17.909ZM181.559,263.5h17.909v11.523H181.559Zm-32.91,0h17.909v11.523H148.649Zm-32.91,0h17.909v11.523H115.739V263.5Zm-32.91,0h17.91v11.523H82.829V263.5Zm0,26.523h34.365v11.523H82.829Zm17.909,66.436H84.364a1.537,1.537,0,0,1-1.535-1.535V343.07h17.91v13.387Zm32.91,0H115.739V343.07h17.909Zm0-28.388H82.829V316.546h50.819Zm-1.454-26.524V290.022H150.1v11.523H132.194Zm34.364,54.912H148.649V343.07h17.909Zm0-28.388H148.649V316.546h17.909ZM165.1,301.545V290.022h17.909v11.523H165.1Zm16.455,54.912V343.07h149.55v13.387Zm149.55-28.388H313.2V316.546h17.909Zm-1.455-26.524V290.022h17.909v11.523H329.654Zm34.364,54.912H346.109V343.07h17.909Zm0-28.388H346.109V316.546h17.908v11.523Zm-1.454-26.524V290.022h17.909v11.523H362.564Zm34.363,54.912H379.018V343.07h17.909Zm-17.908-28.388V316.546h50.819v11.523H379.019Zm50.189,28.388H411.929V343.07h17.909C429.584,355.1,430.406,356.457,429.208,356.457Z"/>
      </g>
    </g>
  </g>
</svg>
