<svg xmlns="http://www.w3.org/2000/svg" width="511.948" height="512.001" viewBox="0 0 511.948 512.001">
  <g id="_644519" data-name="644519" transform="translate(-0.026 0)">
    <g id="Group_140" data-name="Group 140">
      <g id="Group_139" data-name="Group 139">
        <path id="Path_84" data-name="Path 84" d="M481.341,55.66a7.5,7.5,0,0,0-12.561,8.2c28.085,43.023,28.2,102.475,28.193,103.1,0,.732.034,322.2-.2,301.692-66.107-.127-62.492.26-62.492-.267V281.308a7.5,7.5,0,0,0-15,0V468.386a15.254,15.254,0,0,0,7.35,13.028V491.9a20.122,20.122,0,0,0,20.1,20.1h37.445a20.122,20.122,0,0,0,20.1-20.1V481.7a15.1,15.1,0,0,0,7.7-13.149V167C511.986,164.387,511.931,102.522,481.341,55.66ZM484.175,497H446.73a5.168,5.168,0,0,1-5.1-5.1v-8.249h47.643V491.9h0A5.167,5.167,0,0,1,484.175,497Z"/>
      </g>
    </g>
    <g id="Group_142" data-name="Group 142">
      <g id="Group_141" data-name="Group 141">
        <path id="Path_85" data-name="Path 85" d="M470.441,88.247c-8.324-18.2-20.082-33.984-37.142-46.668a7.5,7.5,0,1,0-8.949,12.037,82.279,82.279,0,0,1,8.919,7.722c9.382,8.366,17.3,19.519,23.533,33.148a7.5,7.5,0,1,0,13.639-6.239Z"/>
      </g>
    </g>
    <g id="Group_144" data-name="Group 144">
      <g id="Group_143" data-name="Group 143">
        <path id="Path_86" data-name="Path 86" d="M350.14,83.868a21.674,21.674,0,1,0,21.674,21.674A21.7,21.7,0,0,0,350.14,83.868Zm0,28.348a6.674,6.674,0,1,1,6.675-6.674A6.682,6.682,0,0,1,350.139,112.216Z"/>
      </g>
    </g>
    <g id="Group_146" data-name="Group 146">
      <g id="Group_145" data-name="Group 145">
        <path id="Path_87" data-name="Path 87" d="M483.825,161.03a6.867,6.867,0,0,0-.43-1.4,6.949,6.949,0,0,0-.69-1.29,6.43,6.43,0,0,0-.93-1.14,7.346,7.346,0,0,0-1.14-.94,7.558,7.558,0,0,0-1.29-.689,8.845,8.845,0,0,0-1.41-.431,7.641,7.641,0,0,0-2.93,0,8.67,8.67,0,0,0-1.4.431,7.591,7.591,0,0,0-1.29.689,7.719,7.719,0,0,0-2.08,2.08,7.335,7.335,0,0,0-1.11,2.69,7.332,7.332,0,0,0-.149,1.47,7.234,7.234,0,0,0,.149,1.46,7.944,7.944,0,0,0,.42,1.41,7.667,7.667,0,0,0,.69,1.29,7.4,7.4,0,0,0,.94,1.14,6.435,6.435,0,0,0,1.14.931,6.886,6.886,0,0,0,1.29.689,7,7,0,0,0,1.4.43,7.248,7.248,0,0,0,1.47.15,7.609,7.609,0,0,0,2.87-.58,7.036,7.036,0,0,0,1.29-.689,6.859,6.859,0,0,0,1.14-.931,7.608,7.608,0,0,0,1.62-2.43,7.224,7.224,0,0,0,.43-1.41,7.086,7.086,0,0,0,.15-1.46A7.336,7.336,0,0,0,483.825,161.03Z"/>
      </g>
    </g>
    <g id="Group_148" data-name="Group 148">
      <g id="Group_147" data-name="Group 147">
        <path id="Path_88" data-name="Path 88" d="M478.953,442.868h-27a7.5,7.5,0,0,0,0,15h27a7.5,7.5,0,0,0,0-15Z"/>
      </g>
    </g>
    <g id="Group_150" data-name="Group 150">
      <g id="Group_149" data-name="Group 149">
        <path id="Path_89" data-name="Path 89" d="M89.194,43.123A7.5,7.5,0,0,0,78.7,41.579,93.124,93.124,0,0,0,68.59,50.285C57.72,60.022,48.626,72.794,41.558,88.247A7.5,7.5,0,1,0,55.2,94.485C61.432,80.856,69.349,69.7,78.731,61.337c.106-.1.21-.192.312-.293a78.352,78.352,0,0,1,8.607-7.429A7.5,7.5,0,0,0,89.194,43.123Z"/>
      </g>
    </g>
    <g id="Group_152" data-name="Group 152">
      <g id="Group_151" data-name="Group 151">
        <path id="Path_90" data-name="Path 90" d="M161.86,83.868a21.674,21.674,0,1,0,21.673,21.674A21.7,21.7,0,0,0,161.86,83.868Zm0,28.348a6.674,6.674,0,1,1,6.674-6.674A6.682,6.682,0,0,1,161.861,112.216Z"/>
      </g>
    </g>
    <g id="Group_154" data-name="Group 154">
      <g id="Group_153" data-name="Group 153">
        <path id="Path_91" data-name="Path 91" d="M40.826,157.2a7.436,7.436,0,0,0-2.432-1.629,8.69,8.69,0,0,0-1.4-.431,7.693,7.693,0,0,0-2.94,0,8.659,8.659,0,0,0-1.4.431,7.554,7.554,0,0,0-1.29.689,7.542,7.542,0,0,0-3.34,6.24,7.234,7.234,0,0,0,.149,1.46,7.741,7.741,0,0,0,1.111,2.7,7.4,7.4,0,0,0,.94,1.14,7.583,7.583,0,0,0,2.431,1.62,7.706,7.706,0,0,0,1.4.43,7.265,7.265,0,0,0,1.471.15,7.35,7.35,0,0,0,1.47-.15,7.683,7.683,0,0,0,1.4-.43,6.972,6.972,0,0,0,1.29-.689,6.824,6.824,0,0,0,1.141-.931,7.294,7.294,0,0,0,.939-1.14,7.526,7.526,0,0,0,.69-1.29,7.626,7.626,0,0,0,.42-1.41,7.156,7.156,0,0,0,.15-1.46A7.532,7.532,0,0,0,40.826,157.2Z"/>
      </g>
    </g>
    <g id="Group_156" data-name="Group 156">
      <g id="Group_155" data-name="Group 155">
        <path id="Path_92" data-name="Path 92" d="M60.047,442.868h-27a7.5,7.5,0,0,0,0,15h27a7.5,7.5,0,0,0,0-15Z"/>
      </g>
    </g>
    <g id="Group_158" data-name="Group 158">
      <g id="Group_157" data-name="Group 157">
        <path id="Path_93" data-name="Path 93" d="M462.988,33.514q-1.026-.969-2.077-1.914c-43-42.819-112.281-41.382-158.9-.184-16.9,14.939-25.332,29.873-26.188,31.435a21.546,21.546,0,0,0-4.051,12.593v60.193a21.541,21.541,0,0,0,4.052,12.594c.86,1.569,9.288,16.5,26.187,31.434,35.787,31.627,83.2,38.421,117.27,24.518v50.125h0a7.5,7.5,0,0,0,15,0v-62.1c0-28.152-20.715-45.093-27.325-33.4a7.5,7.5,0,0,0,2.834,10.221c6.024,3.409,8.406,12.607,9.175,18.845-33.3,16.531-84.211,8.972-118.957-31.577a21.71,21.71,0,0,0,15.111-20.655V75.445a21.709,21.709,0,0,0-15.111-20.654C339.457,8.741,408.3.195,450.457,42.358c.026.025,1.42,1.294,2.234,2.063a7.5,7.5,0,1,0,10.3-10.907ZM300.12,75.841v59.4c0,5.57-5.71,8.84-10.181,6.064-4.967-3.1-2.644-4.952-3.168-65.862a6.691,6.691,0,0,1,7.3-6.642A6.919,6.919,0,0,1,300.12,75.841Z"/>
      </g>
    </g>
    <g id="Group_160" data-name="Group 160">
      <g id="Group_159" data-name="Group 159">
        <path id="Path_94" data-name="Path 94" d="M236.172,62.845c-.871-1.588-9.3-16.5-26.185-31.429C163.617-9.565,94.265-11.412,51.09,31.6.173,77.18.009,163.348.027,166.96V375.886a7.5,7.5,0,0,0,15,0V166.923c0-.827.127-83.183,46.206-124.272.108-.1.211-.193.313-.294C99.6,4.3,168.273,3.767,211.992,54.79a21.709,21.709,0,0,0-15.111,20.654v60.193a21.71,21.71,0,0,0,15.111,20.655c-34.777,40.573-85.683,48.1-118.961,31.575.774-6.155,3.17-15.443,9.179-18.843a7.5,7.5,0,1,0-7.387-13.055c-12,6.793-17.105,23.251-17.105,36.237-.125,288.323.262,276.443-.267,276.443H15.13c-.206,0-.055,2.647-.1-65.767a7.5,7.5,0,0,0-15,0v65.664a15.1,15.1,0,0,0,7.7,13.149v10.2a20.122,20.122,0,0,0,20.1,20.1H65.269a20.122,20.122,0,0,0,20.1-20.1V481.409a15.256,15.256,0,0,0,7.35-13.028v-264.2c34.066,13.9,81.476,7.117,117.269-24.518,16.881-14.919,25.309-29.833,26.184-31.428a21.552,21.552,0,0,0,4.056-12.6V75.444A21.554,21.554,0,0,0,236.172,62.845ZM70.369,491.9a5.168,5.168,0,0,1-5.1,5.1H27.824a5.167,5.167,0,0,1-5.1-5.1v-8.249H70.369ZM222.652,140.9a7.077,7.077,0,0,1-.6.414,5.291,5.291,0,0,1-.681.369,5,5,0,0,1-.876.343c-.084.026-.522.137-.734.175-.128.024-.469.073-.763.093a5.883,5.883,0,0,1-.774.006,3.37,3.37,0,0,1-.531-.045,5.744,5.744,0,0,1-.966-.2,7.039,7.039,0,0,1-4.851-6.811v-59.4c0-4.511,3.942-8,8.373-6.843a6.684,6.684,0,0,1,4.975,6.446C224.684,138.682,226.808,137.625,222.652,140.9Z"/>
      </g>
    </g>
  </g>
</svg>
