<svg xmlns="http://www.w3.org/2000/svg" width="443.07" height="512.001" viewBox="0 0 443.07 512.001">
  <g id="_644521" data-name="644521" transform="translate(-34.464)">
    <g id="Group_134" data-name="Group 134">
      <g id="Group_133" data-name="Group 133">
        <path id="Path_81" data-name="Path 81" d="M147.451,28.49h-56.8a27.754,27.754,0,0,0,0,55.508h56.8a27.754,27.754,0,0,0,0-55.508Zm0,40.508h-56.8a12.754,12.754,0,0,1,0-25.509h56.8a12.754,12.754,0,0,1,0,25.509Z"/>
      </g>
    </g>
    <g id="Group_136" data-name="Group 136">
      <g id="Group_135" data-name="Group 135">
        <path id="Path_82" data-name="Path 82" d="M169.332,123.223a40.68,40.68,0,1,0,40.68,40.68A40.727,40.727,0,0,0,169.332,123.223Zm0,66.362a25.68,25.68,0,1,1,25.68-25.68A25.71,25.71,0,0,1,169.331,189.585Z"/>
      </g>
    </g>
    <g id="Group_138" data-name="Group 138">
      <g id="Group_137" data-name="Group 137">
        <path id="Path_83" data-name="Path 83" d="M470.034,84a7.5,7.5,0,0,0,7.5-7.5V50.153A50.206,50.206,0,0,0,427.384,0h-161.4c-.052,0-.1,0-.154,0H72.838A38.416,38.416,0,0,0,34.466,38.372V394.216a7.5,7.5,0,0,0,15,0V38.372A23.4,23.4,0,0,1,72.838,15c2.034,0,192.586,0,193.072,0A23.459,23.459,0,0,1,289.2,38.372c-.043,455.757.109,435.335-.12,437.592-.059.58-.151,1.2-.257,1.779l-.021.118a23.709,23.709,0,0,1-18.159,18.6c-3.973.835-5.759.366-20.294.5v-8.215a19.522,19.522,0,0,0-19.5-19.5H220.011a7.5,7.5,0,1,0,0,15h10.835a4.561,4.561,0,0,1,4.5,4.5v8.215H103.316v-8.215a4.561,4.561,0,0,1,4.5-4.5H185.01a7.5,7.5,0,0,0,0-15H107.816a19.523,19.523,0,0,0-19.5,19.5v8.215H72.836a23.4,23.4,0,0,1-23.372-23.372V429.218a7.5,7.5,0,0,0-15,0v44.368a38.415,38.415,0,0,0,38.372,38.372c211.4,0,195.1.306,200.34-.715h154.2a50.207,50.207,0,0,0,50.15-50.149V111.5a7.5,7.5,0,0,0-15,0v349.6a35.189,35.189,0,0,1-35.15,35.149H296.8a38.775,38.775,0,0,0,5.888-12H427.383a23.175,23.175,0,0,0,23.15-23.149V50.153A23.175,23.175,0,0,0,427.383,27H302.476a38.288,38.288,0,0,0-6.247-12H427.383a35.189,35.189,0,0,1,35.15,35.149V76.5A7.5,7.5,0,0,0,470.034,84ZM304.2,42H427.383a8.159,8.159,0,0,1,8.151,8.15V461.092a8.159,8.159,0,0,1-8.151,8.15H304.2Z"/>
      </g>
    </g>
  </g>
</svg>
