<svg xmlns="http://www.w3.org/2000/svg" width="512.002" height="504.597" viewBox="0 0 512.002 504.597">
  <g id="_644526" data-name="644526" transform="translate(-0.001 -3.703)">
    <g id="Group_62" data-name="Group 62">
      <g id="Group_61" data-name="Group 61">
        <g id="Group_60" data-name="Group 60">
          <path id="Path_44" data-name="Path 44" d="M178.056,415.771A9.665,9.665,0,0,1,176.31,398.9a10.185,10.185,0,0,0,.932-16.06,30.96,30.96,0,0,0-7.463-4.814c5.934-7.2,8.267-16.679,6.552-26.8a11.576,11.576,0,0,0-10.886-9.49c-10.553-.33-19.9,3.5-26.241,10.775,0,0,0,0,0,0a31.777,31.777,0,0,0-7.6,22.536c-.862-.081-1.717-.137-2.55-.144-.1-.005-.2-.006-.3-.006a30.974,30.974,0,0,0-31,29.289c-2.114,23.58,14.572,42.81,17.028,45.5a17.995,17.995,0,0,0,15.353,6.179c.171-.015.34-.035.443-.05.505-.06,1-.137,1.495-.238l.276-.059c.547-.119,1.089-.264,1.618-.433l.1-.031a18.147,18.147,0,0,0,1.748-.664l.053-.024.052-.024.434-.192a14.513,14.513,0,0,1,11.955.106l.438.2.137.063.043.02c.508.233,1.044.449,1.637.654l.151.052c.517.173,1.048.325,1.58.452h0l.278.067c.493.11.99.2,1.4.25.186.029.373.055.5.069a17.924,17.924,0,0,0,1.863.119h.165a18.1,18.1,0,0,0,13.538-6.089A76,76,0,0,0,183.5,429.091,10.186,10.186,0,0,0,178.056,415.771ZM152.25,363.876a13.987,13.987,0,0,1,7.2-4.286,13.437,13.437,0,0,1-10.463,12A13.986,13.986,0,0,1,152.25,363.876Zm5.123,74.447c-.091.1-.18.19-.267.29a.766.766,0,0,1-.581.281h-.005l-.125-.013c.088.01.173.021.251.032-.061-.008-.148-.012-.208-.02l-.046-.013h0l-.155-.039-.141-.055-.082-.038-.007,0-.4-.188a31.832,31.832,0,0,0-26.244-.239l-.362.16c-.077.031-.175.069-.247.1l-.083.025c-.03.007-.117.016-.147.024l-.06.007a.742.742,0,0,1-.553-.238c-.1-.114-.2-.228-.3-.337-.142-.153-14.184-15.559-12.6-32.441.012-.123.021-.246.025-.369A13.712,13.712,0,0,1,128.758,392.2h.13a13.934,13.934,0,0,1,1.964.166,13.392,13.392,0,0,1,1.986.448l.782.269c.2.075.384.155.5.2.086.038.174.076.264.113.172.077.344.159.512.243a17.186,17.186,0,0,0,7.883,2.214l.19,0a17.233,17.233,0,0,0,7.936-2.075c.167-.08.338-.157.509-.23l.193-.076c.2-.081.4-.159.6-.234l.473-.152c.1-.033.2-.07.293-.1a13.711,13.711,0,0,1,1.98-.408,12.674,12.674,0,0,1,1.966-.129,13.813,13.813,0,0,1,1.964.159,26.975,26.975,0,0,0,5.967,35.238A57.851,57.851,0,0,1,157.373,438.323Z"/>
          <path id="Path_45" data-name="Path 45" d="M156.392,438.88h0Z"/>
        </g>
      </g>
    </g>
    <g id="Group_64" data-name="Group 64">
      <g id="Group_63" data-name="Group 63">
        <path id="Path_46" data-name="Path 46" d="M363.722,113.432A24.366,24.366,0,1,0,388.088,137.8,24.395,24.395,0,0,0,363.722,113.432Zm0,31.425a7.059,7.059,0,1,1,7.058-7.058A7.066,7.066,0,0,1,363.722,144.857Z"/>
      </g>
    </g>
    <g id="Group_66" data-name="Group 66">
      <g id="Group_65" data-name="Group 65">
        <path id="Path_47" data-name="Path 47" d="M406.352,113.432a8.653,8.653,0,0,0-8.654,8.654v31.425a8.654,8.654,0,1,0,17.308,0V122.086A8.653,8.653,0,0,0,406.352,113.432Z"/>
      </g>
    </g>
    <g id="Group_68" data-name="Group 68">
      <g id="Group_67" data-name="Group 67">
        <path id="Path_48" data-name="Path 48" d="M386.357,365.246H354.932a8.654,8.654,0,1,0,0,17.308h31.425a8.654,8.654,0,0,0,0-17.308Z"/>
      </g>
    </g>
    <g id="Group_70" data-name="Group 70">
      <g id="Group_69" data-name="Group 69">
        <path id="Path_49" data-name="Path 49" d="M510.927,205.3c-1.7-40.708-7.345-115.708-27.722-150.866h0C462.961,20.6,434.265,4.751,399.222,3.842c-.137,0-57.661-.71-70.048,1.09-25.381,3.576-48.593,16.83-65.188,40.781-3.8,5.4-5.247,7.1-8.2,13-3.821-7.64-12.883-20.419-20.851-28.249C216.441,12.492,193.048,3.8,166.208,3.8c-54.172.018-51.544-.057-54.92.089C81.822,4.907,57.05,17.164,40.272,37.718a8.653,8.653,0,1,0,13.277,11.1C70,29.43,91.194,21.1,115.659,21.1c51.215.266,65.939-2.236,86.9,7.612,2.352,1.463,17.429,7.005,30.754,26.8,2.106,3.138,3.592,4.823,5.2,7.593,0,0,0,.007.006.009C262.75,104.839,265.136,214.67,264.886,263.3c-.455,84.468-8.841,125.824-8.411,123.143-.627,3.966-1.554,9.046-1.539,8.963-2.84,15.495-7.54,35.791-14.505,49.914h0c-.018.035-.036.07-.053.106l.315.156c-.029.031-.06.063-.089.1l-.284-.134a124.717,124.717,0,0,1-14.031,20.019c-14.486,15.863-32.228,23.686-53.675,25.146-.7.047-59.656,1.2-74.272-1.337C61.7,482.532,48.47,455.392,45.83,452.621c-.113-.162-.23-.318-.353-.47a37.655,37.655,0,0,1-2.994-4.791h0c-.007-.014-.369-.7-.375-.711l-.05.025c-.031-.045-.062-.09-.1-.135l.068-.037c-10.911-20.994-16.893-58.353-19.652-81.934,0-.024-.006-.048-.009-.073v0l-.516-4.582h0C14.2,287.728,13.278,155.719,33.893,86.762c.037-.115,1.668-5.312,1.628-5.19a8.654,8.654,0,0,0-16.429-5.445c-2.544,7.7-4.865,16.605-6.575,24.363l-.025.114c-16.218,73.6-22.57,301.8,18.381,360.9l3.4,4.794c.062.088.125.174.188.261,15.73,23.169,38.956,37.324,66.886,40.777,11.692,1.5,69.118.8,69.235.8,31.673-1.1,57.791-14.552,77.015-41.831,3.022-4.491,4.777-6.129,8.2-13,2.895,5.814,4.5,7.788,8.2,13,19.966,28.332,47.622,41.92,81.388,41.92,52.974-.018,50.52.042,53.852-.047,29.287-.766,54.846-12.46,73.1-35.107a8.654,8.654,0,0,0-13.492-10.842c-15.577,19.447-38.049,28.688-62.909,28.688-52.067-.075-73.417,3.08-97.531-13.741-12.047-8.585-16.892-16.073-22.845-24.552a33.551,33.551,0,0,1-3.005-4.634s0,0,0,0c-.242-.445-.271-.5-.342-.625h0c-.513-.973-.336-.639-.375-.711l-.05.025-.1-.135.069-.037c-3.872-7.446-6.465-16.081-6.924-17.2,2.242-7.648,4.076-15.347,5.677-23.216,11.679,16.8,29.944,11.893,34.8,12.724H445.37a29.581,29.581,0,0,0,29.547-29.547V115.907A29.581,29.581,0,0,0,445.37,86.36H305.3c-4.605.867-24.668-4.325-35.894,14.408-1.375-6.226-2.781-11.878-4.569-18,.948-2.879,1.257-3.755,1.2-3.585A97.636,97.636,0,0,1,271.811,65.4a37.868,37.868,0,0,1,3.746-6.017c2.342-2.071,18.21-35.8,64.2-38.111,5.48-.314,59.341-.432,67.241.46,21.411,2.427,38.644,11.813,52.059,28.354a167.711,167.711,0,0,1,9.685,13.94c10.975,19.769,18.373,60.946,20.461,83.507.464,3.969.594,5.366.676,6.053l.188,1.816c7.557,72.625,6.577,198.938-9.255,258.2l-.15.613c-1.387,5.617-2.275,8.624-2.26,8.57-.518,1.822-.952,3.241-1.077,3.661-.061.22-.816,2.615-.852,2.73a8.654,8.654,0,1,0,16.447,5.393c3.306-10.628,4.778-17.162,4.72-16.924.213-.853.974-4.107,1.4-6.046l.04-.185C511.944,353.1,513.575,264.613,510.927,205.3ZM443.49,103.663h1.878a12.253,12.253,0,0,1,12.24,12.24V389.258a12.253,12.253,0,0,1-12.24,12.24H443.49ZM282.528,115.9h0a12.253,12.253,0,0,1,12.24-12.24h1.878v57.7a8.654,8.654,0,1,0,17.308,0v-57.7H426.182V401.5H313.954V201.749a8.654,8.654,0,1,0-17.308,0V401.5h-1.878a12.253,12.253,0,0,1-12.24-12.24V115.9Zm-11.271-49.42c.175-.351.342-.677.5-.991Z"/>
      </g>
    </g>
  </g>
</svg>
